<?xml version="1.0" encoding="UTF-8" standalone="no"?>
<svg xmlns:rdf="http://www.w3.org/1999/02/22-rdf-syntax-ns#" xmlns="http://www.w3.org/2000/svg" height="589" viewBox="0 0 230 589" width="230" version="1.1" xmlns:cc="http://creativecommons.org/ns#" xmlns:dc="http://purl.org/dc/elements/1.1/">
<g>
<path d="m198.88 163.21c-5.05 0.42-10.17 5.95-8.33 11.08 0.18 0.8 2.5 3.86 0.58 2.22-2.85-2.21-4.44-6.06-7.88-7.41-3.23 0.43-5.19 3.77-7.71 5.57-4.04 3.81-8.74 6.52-12.84 10.26-3.66 2.38-8.79 4.63-9.75 9.5 0.28 5.59 5.58 9.23 10.04 11.71 3.59 1.81 8.6 3.45 12.16 0.81 3.21-3.32 7.29-5.61 11.19-8.01 7.6-3.93 14.12-9.57 21.12-14.42-1.41 1.92-2.15 4.59-2.8 6.69-1.73 8.6-1.82 17.45-3.48 26.08-0.54 5.38-3.03 10.71-2.15 16.15 0.71 3.02 5.28 5.28 7.13 1.97 0.56-1.2 1-2.44 1.37-3.69 0.37 2.05 1.68 3.84 4.02 4.01 1.88 0.14 2.84-1.16 3.23-2.72 0.13 0.88 0.28 1.75 0.48 2.61 0.65 2.8 4.87 3.23 5.65 0.31 0.3-0.98 0.44-1.97 0.46-2.96l1.01 4.61 5.04-12.82-1.38-13.27-1.37-27.91-5.49 0.46-1.83 30.66 2.6 11.8c-0.7-1.62-1.59-3.17-2.54-4.54-0.66-0.72-1.72-0.48-2.44 0.08 0.12-1.54 0.38-3.06 0.97-4.53 1.38-10.26 2.02-20.67 1.72-31.01-0.13-1.06-1.04-1.73-2.03-1.77-0.32-0.01-0.66 0.05-0.98 0.18-0.22 0.22-0.4 0.45-0.57 0.7 1.04-1.71-0.81-3.73-2.91-3.55 1.45-0.91 2.94-1.78 4.46-2.57 2.01-0.78 2.62 2.85 4.63 2.89 3.6 0.88 4.57-4.44 2.13-6.31-5.88-5.33-13.44-8.35-20.37-12.06-0.97-0.51-2.03-0.89-3.14-0.8zm15.05 22.61c-0.39 0.62-0.63 1.32-0.78 2.06 0.05-0.49 0.09-0.97 0.15-1.45 0.26-0.19 0.46-0.4 0.63-0.61zm-1.74 11.77c-0.59 7.86-1.3 15.71-2.79 23.45 0.23-1.9 0.47-3.79 0.81-5.65 0.89-5.9 1.44-11.85 1.98-17.8z" fill-rule="evenodd" fill="#ffdede"/>
<path d="m68.137 3.7402c-4.608 0.1078-8.788 2.3181-12.895 4.1621-2.454-1.6821-5.5-2.2513-8.303-1.1015-5.989 2.0139-12.229 6.5402-12.869 13.318-0.991 6.044-5.747 10.977-5.851 17.192 0.093 2.457 2.589 3.504 4.711 3.523 1.795 0.638 4.603 2.513 5.207 3.66-2.52-0.603-4.472-4.881-7.153-2.646-2.619 2.762-5.022 7.126-2.576 10.757 2.207 3.906 6.991 4.129 10.889 4.887-2.91 0.633-5.208 2.689-8.17 3.094-4.676 1.965-4.5 7.943-3.607 12.125 1.571 7.113 6.161 13.085 10.351 18.871 2.447 3.308 6.123 6.152 10.477 5.633 8.649-0.42 16.714-4.501 23.187-10.088 3.467-2.927 7.468-5.622 9.354-9.906 1.38-1.347 2.169-3.582 0.539-5.076-0.811-1.04-3.133-3.734-0.67-4.323 3.78-0.238 4.21-4.863 4.554-7.767 0.836-2.814-0.577-7.112-4.091-6.76-1.056 0.659-1.252-2.219-0.078-1.922 4.96 0.106 7.615-5.026 9.089-9.047 0.996-3.269 2.424-7.561-0.156-10.43-3.383-2.341-5.594-5.826-7.021-9.623-1.892-4.804-0.855-10.812-5.016-14.619-2.527-2.6713-6.275-3.9539-9.902-3.9138zm-15.133 12.289c2.162-0.049 4.745 1.066 5.562 3.119 0.859 2.974-2.553 4.937-5.123 4.577-2.142 0.035-1.183-0.249 0.323-0.405 2.358 0.217 4.566-2.303 2.824-4.394-0.812-1.264-2.737-2.389-3.586-2.897zm20.652 22.207c1.367 0.611 3.802-0.625 3.987 1.59 0.219 0.721 0.922 4.141-0.284 3.158-1.405-1.352-2.286-3.689-3.703-4.748zm-11.427 3.381c1.055 0.382 2.673 1.457 2.724 2.457-0.859-0.75-2.132-1.923-2.724-2.457zm-4.133 14.504c1.282 0.036 3.589 0.22 4.068 0.781-2.257 1.143-5.939 1.433-7.756 0.02 1.088-0.676 2.438-0.778 3.688-0.801zm-16.278 11.379c1.246 0.627 2.43 2.152 2.608 3.334-1.326-0.264-3.233-1.525-3.268-2.703 0.201-0.226 0.42-0.454 0.66-0.631zm4.698 10.16c3.202-0.255 5.192 3.571 3.287 6.096-1.826 2.769-5.46 0.138-6.729-1.873-2.119-1.595 0.461-3.625 2.207-4.098 0.404-0.094 0.82-0.136 1.235-0.125zm28.955 8.778c-3.785 0.71-5.702 4.614-8.897 6.453-4.274 3.261-9.863 5.533-12.525 10.599-1.493 1.72-4.989 4.06-2.625 6.57 2.724 2.23 6.585 1.36 9.517 3.24 3.528 1.19 6.717 4.52 10.659 3.84 2.978-1.28 2.062-5.29 2.937-7.84 1.065-6.79 3.893-13.354 3.815-20.286-0.116-1.473-1.359-2.723-2.881-2.576zm93.749 51.122c-0.13 0-0.28 0-0.43 0.01-7.21 0.42-14.59 0.3-21.83 0.92-6.4 3.03-12.84 6.06-19.42 8.62-2.83 2.11-1.43 6.36 0.73 8.45 1.97 2.31 3.32 6.82 7.14 6.04 4.21-1.06 8.07-3.51 12.09-4.77 9.45 2.09 18.98 4.8 28.77 4.02 7.09-0.37 14.42-0.44 21.18-2.85 2.56-0.72 2.58-4.73-0.23-5.07-6.8-1-13.74-0.45-20.57-1.24 2.34 0.03 4.92-2.59 2.94-4.72-2.21-1.83-5.17-2.88-6.53-5.64-0.9-1.6-1.77-3.67-3.84-3.77zm11.32 23.41c-0.32-0.03-0.64-0.02-0.94 0.01-2.38-0.21-6.16 1.54-4.76 4.42 2.19 3.06 7.74 3.66 9.52-0.13 0.86-2.55-1.56-4.12-3.82-4.3zm11.34 37.25c-0.21 0-0.41 0.03-0.61 0.08-2.43 1.23-1.59 4.3-2.56 6.47-0.02-2.54-0.77-5.18-3.62-5.32-3.44 0.31-4.73 4.17-5.14 7.07-0.45 0.38-0.91 3.16-1.17 1.61-1.09-2.52-4.71-1.7-5.62 0.56-2.61 4.02-3.61 9.12-4.2 13.55-1.35-5.81-7.64-8.43-13.11-8.28-4.08-0.4-7.91 1.2-11.34 3.24-2.28 0.35-4.53 1.41-5.54 3.67-1.59 1.87-0.55 5.06 2.05 5.1 3.24 0.13 6.56 0.04 9.52 1.63 4.67 1.46 9.39 3.38 14.32 3.52 4.45-0.11 8.65-1.67 12.86-2.89 2.75 0.04 6.14-0.47 7.13-3.52 0.57-1.61 0.89-3.27 1.14-4.94 1.22 1.3 4.03 1.15 5.4-0.11 2.98-2.62 2.14-7.12 2.76-10.67-0.01-3.31 1.03-7.07-0.66-10.09-0.43-0.46-1.01-0.69-1.61-0.68zm-13.83 17.68c0.01 0.03-0.07 0.59-0.07 0.65-0.3 2.23-0.3 1.23 0.04-0.47 0.02-0.14 0.03-0.19 0.03-0.18zm-123.31 97.87c-5.884 0.22-12.241 0.05-17.525 3-2.67 1.49-1.457 5.56 1.256 5.93-0.982 0.6-1.842 1.37-2.459 2.48-1.975 4.08-1.303 9.03 0.232 13.16 2.587 8.21 5.84 16.18 9.672 23.89 4.298 10.7 10.092 21.35 10.084 33.18 0.38 13.26-6.116 25.7-5.604 39.05-0.411 11.39 1.757 22.79 6.36 33.21 3.352 7.45 5.97 15.18 9.428 22.58 2.815 7.15 6.608 14.16 6.496 22.06 0.546 8.65 0.219 17.36-2.53 25.61-2.008 7.65-5.184 15.38-4.556 23.42 0.735 5.54 6.057 9.72 11.377 10.4 4.641 0.33 9.399-2.96 9.904-7.76 1.245-9.13 0.333-18.39 0.246-27.57-0.859-19.96-3.249-39.81-2.904-59.79-0.159-12.29 0.569-24.61-0.008-36.9-1.355-5.16-2.52-10.46-2.633-15.76-0.312-2.36-0.053-6.33-3.215-6.72-2.498-0.14-2.934 3.04-3.507 4.43-1.315-1-1.329-3.37 0.507-3.79 6.063-3.61 7.57-11.21 8.821-17.6 2.531-17.14 1.931-34.56 3.357-51.77 0.349-6.73 1.069-13.49 1.219-20.2-1.085-2.58-4.011-4.04-6.34-5.49-0.135-0.07-0.273-0.13-0.408-0.2 0.84 0.1 1.687 0.08 2.541-0.12 2.335-1.27 0.706-4.15-1.321-4.65-8.883-3.95-18.948-4-28.49-4.08zm-6.75 93.2c-4.127 0.97-6.268 5.29-8.189 8.69-6.236 13.34-6.897 29.27-1.512 43.02 2.222 7.56 1.21 15.58 1.367 23.35-0.305 8.28-1.131 16.88-4.758 24.44-1.802 2.73-3.673 6.76-1.304 9.66 2.512 6.64 3.135 13.9 6.08 20.42 1.737 4.01 3.197 8.15 4.316 12.35 1.482 2.81 5.308 4.28 8.301 3.42 3.532-1.78 2.427-6.41 2.795-9.6 0.415-18.05 0.145-36.27 0.996-54.2 0.601-4.33 3.602-8.52 1.828-12.99-3.446-10.4-10.074-19.88-10.709-31.01-1.173-9.76 0.888-19.42 3.662-28.69 0.797-2.99 1.66-8.59-2.873-8.86z" fill="#ffd499"/>
<path d="m68.129 3.8477c-4.656-0.0307-8.717 2.5543-12.961 3.9414-2.823-1.7-6.297-2.0863-9.32-0.5918-5.966 2.3876-11.733 7.3347-12.037 14.198-0.864 1.938-0.623 5.314 2.277 4.849 6.666-1.545 13.779-1.394 20.209-3.75 2.567-2.579-1.199-5.614-3.52-6.406 2.884-0.373 7.018 1.821 5.702 5.193-1.155 1.469-3.143 3.891-0.651 5.264 2.162 1.244 4.69 3.213 7.295 1.924-1.398 2.996 2.466 5.029 4.147 6.939 1.255 1.271 2.98 1.562 4.351 2.606 1.49 0.52 4.308-0.039 4.197 2.39 0.462 3.394-0.822 8.454 2.809 10.567 4.108 1.333 6.993-3.256 8.6-6.352 1.41-3.402 3.271-7.572 1.673-11.183-2.369-3.079-5.713-5.432-7.039-9.26-2.947-4.987-1.112-11.692-5.476-15.985-2.473-3.0079-6.41-4.4996-10.256-4.3433zm16.713 62.808c-3.861 0.2-4.123 4.802-4.01 7.727 0.075 13.37-4.649 25.927-7.197 38.867-0.881 3.31 3.07 7.78 6.267 5.48 0.868-0.78 1.009-2.14 1.047-3.16 1.86 3.48 5.884 4.4 9.481 4.62 3.736 0.75 6.964 2.96 8.834 6.32 1.676 1.86 2.856 5.74 5.946 5.14 3.06-1.31 0.55-4.53-0.14-6.52-0.44-3.91-2.1-8.16-6.177-9.51-3.558-1.61-7.991-1.21-11.426-2.08 3.279-3.35 7.606-5.24 11.678-7.35 3.505-2.65 7.115-7.031 6.065-11.676-0.56-1.803-3.72-1.064-3.88-2.84 3.06-4.03 8.07-7.176 8.46-12.721 0.65-4.247-0.87-9.979-5.43-11.31-4.32-0.54-7.839 3.536-12.051 3.152-2.409-1.46-4.386-4.169-7.467-4.139zm-55.653 18.567c-5.508 0.633-9.133 6.787-8.392 12.039 0.398 1.577-0.5 2.104-1.49 0.861-0.576-1.666-0.733-3.895-2.684-4.732-4.316-1.833-8.9998 2.2-10.164 6.255-2.0286 6.624 3.912 12.764 9.736 14.874 4.28 1.7 8.848 0.4 12.936-1.15 1.823-0.61 0.507 2.31 1.264 3.25 1.323 3.26 5.305 1.38 7.261-0.17 4.237-3.42 7.263-8.36 9.047-13.39-0.679-2.8-3.897-4.468-5.599-6.789-3.467-3.257-6.051-7.398-9.651-10.478-0.676-0.413-1.473-0.615-2.264-0.57z" fill="#ffff58"/>
<path d="m51.076 110.62c-2.83-0.17-5.922 3.81-3.39 6.08 1.834 1.22 4.3 1.18 5.929 2.84 2.98 2.24 5.705 5.18 9.217 6.47 1.111 3.35 1.89 6.99 4.508 9.58 2.786 3.05 4.171 7.15 3.967 11.14 0.168 7.22 0.545 14.53-0.522 21.64-2.649 1.57-1.29 5.48 0.988 6.75 2.875 2.09 6.749 4.82 10.362 2.83 2.958-2.24 4.064-6.17 4.97-9.61 0.814-6.18 0.262-12.48-0.324-18.66-0.755-7.39-3.278-14.42-6.097-21.22-1.083-3.57-1.684-7.74-4.981-10.07-2.188-2.04-5.289-1.84-8.035-2-3.572-1.84-6.938-4.26-10.975-5.05-1.832-0.48-3.723-0.72-5.617-0.72zm27.746 48.68l0.03 0.22c-0.052 0.65 0.622 3.25-0.307 2.24-1.09-0.7-0.454-1.81 0.277-2.46zm-53.998 48.14c-2.863 0.56-3.164 4.13-3.863 6.45-0.67 3.73-1.53 7.62-0.926 11.4 0.468 1.05 1.693 1.88 0.877 3.18-1.822 4.75-6.343 8.61-5.912 14.08 0.098 2.35 3.311 2.75 4.449 0.91 4.286-5.33 6.921-11.78 11.229-17.12 1.477-2.37 4.033-4.25 4.73-7.01-0.278-2.45-2.618-4.1-3.951-6.03-1.931-1.97-3.49-4.55-6.01-5.8-0.208 0.01-0.414-0.07-0.623-0.06zm17.297 6.46h-0.322c-5.984 0.46-5.323 10.01 0.389 10.7 3.836 0.53-1.841 2.24-1.44 4.6-1.004 2.74 1.593 5.53 2.604 7.07-3.645 2.05-2.195 7.19 1.636 7.95-2.531 1.87-9.33 5.26-5.314 8.79 1.955 0.55 4.272-0.73 2.162 2.43-1.646 2.17-4.67 7.94 0.238 8.12 3.592-0.27 5.954-5.04 9.811-2.49 1.881 0.58 7.61 0.3 3.191 2.79-2.985 2.75-8.297 5.45-7.834 10.08 0.512 2.8 5.949-0.07 4.069 3.17-1.702 2.58-1.014 7.06 2.808 6.58 3.348-0.59 9.458 3.06 10.152-2.24 0.412-2.53 1.918-3.13 1.844-0.19 1.66 4.27 4.381 8.02 6.153 12.22 2.176 2.6 5.665-0.11 7.066-1.56 2.597 5.36 10.379 5.06 13.426 0.37 4.61-0.17 12.17-1.78 11.65-7.79-0.88-1.67-2.72-2.72-0.55-4.6 3.35-2.8 3.6-7.09-0.02-9.65-1.01-3.25 5.33-1.99 5.52-5.43 1.75-5.36-4.84-6.7-8-9.01-4.045-4.58-5.281-12.04-1.821-17.24 0.591-5.63-6.973-4.65-10.457-6.02-5.914-1.3-7.974-7.33-9.359-12.36-2.634-3.22-8.225-6.85-12.207-4.33-1.102 1.7 0.399 3.95-2.375 1.99-7.262-3.22-15.46-1.87-23.02-3.95z" fill="#bfbfff"/>
<path d="m24.428 130.33c-2.44 0-3.022 3.18-1.524 4.72 3.025 3.75 7.097 6.96 11.789 8.25 2.355 0.6 3.866-2.38 2.428-4.14-1.355-2.33-3.444-4.28-5.955-5.25-2.205-1.2-4.088-3.48-6.738-3.58zm16.836 16.17c-2.721 0.49-2.078 3.9-1.686 5.86 0.941 4.12 2.534 8.31 5.334 11.52 3.528 2.07 7.245 4.02 11.174 5.21 2.219 0.77 4.147-2.07 2.557-3.82-1.599-1.91-3.593-3.49-4.807-5.69-1.438-1.92-4.556-1.18-5.492-3.62-1.213-2.49-2.675-4.87-4.504-6.93-0.027-1.36-1.138-2.7-2.576-2.53zm22.779 23.96l-0.066 0.01c-2.47 0.2-2.4 3.25-1.219 4.78 2.559 4.84 7.175 8.63 12.373 10.29 2.394 0.87 5.819-0.74 5.224-3.64-1.178-3.06-4.569-4.46-7.001-6.38-2.96-1.72-5.65-4.27-9.043-5.06h-0.268z" fill="#e6e6e6"/>
</g>
<path d="m67.197 0.068359c-3.239 0.10824-6.479 1.0803-9.265 3.1406-2.281 1.6863-3.215 1.9085-4.139 0.9844-1.726-1.7264-4.978-1.4718-10.293 0.8066-2.566 1.1-5.546 2-6.623 2-6.116 0-10.216 7.86-7.496 14.369 1.332 3.187 1.296 3.613-0.42 5.166-7.804 7.062-8.64 17.967-2.285 29.781 1.374 2.556 1.357 2.99-0.192 4.702-2.244 2.479-3.208 13.821-1.521 17.894 1.671 4.034-4.312 11.702-9.92 12.715-8.4273 1.523-13.043 6.354-13.043 13.653 0 8.96 11.279 15.35 22.5 12.75 3.84-0.9 7.647 0.3 4.418 1.38-8.072 2.71-11.324 3.59-13.203 3.59-7.9324 0.02-18.73 15.94-14.932 22.02 0.6697 1.08 1.2182 2.97 1.2209 4.22 0.0053 2.44 6.1704 15.15 8.7441 18.02 0.866 0.96 2.065 2.62 2.664 3.68s4.585 7.13 8.859 13.48c4.275 6.35 8.066 13.02 8.424 14.82 0.358 1.79 1.924 5.58 3.479 8.41 2.48 4.53 3.703 9.35 2.371 9.35-0.586 0-5.545-4.95-5.545-5.53 0-0.43-1.202-1.99-5.688-7.35-3.033-3.63-5.241-1.39-5.882 5.96-1.097 12.58-1.036 12.46-7.862 15.96-13.092 6.72-15.006 11.75-2.2711 5.98 9.8481-4.47 10.619-3.92 6.2031 4.38-5.8268 10.96 0.369 17.09 6.414 6.35 1.625-2.89 3.433-5.79 4.02-6.46 0.586-0.66 1.066-1.46 1.066-1.77 0-0.82 5.209-8.7 7.25-10.96 1.599-1.77 1.75-1.78 1.75-0.18 0 1.56-3.494 6.99-6.67 10.36-0.643 0.68-1.689 2.82-2.326 4.75s-1.524 3.51-1.969 3.51-1.037 1.24-1.316 2.75c-0.28 1.51-1.292 5.64-2.248 9.17-1.688 6.24-1.408 12.93 1.068 25.55 0.402 2.05-2.031 14.56-3.508 18.03-2.406 5.66-5.305 12.33-6.517 15-6.4347 14.17 1.28 22.39 12.529 13.35 4.573-3.68 5.957-3.11 5.953 2.46-0.003 4.25 3.104 16.59 5.623 22.34 0.76 1.73 1.381 3.78 1.381 4.54s0.917 3.17 2.037 5.35 2.452 5.54 2.959 7.46 1.644 5.98 2.527 9c3.104 10.62 1.359 22.77-4.509 31.39-8.425 12.36-11.464 23.92-9.227 35.11 0.55 2.75 2.174 10.82 3.608 17.94 5.088 25.27 2.194 41.93-8.174 47.04-6.201 3.06-9.996 12.48-6.869 17.05 0.743 1.08 1.629 3.09 1.97 4.47 0.342 1.38 4.492 6.55 9.221 11.5s9.578 11.02 10.777 13.49c2.139 4.4 14.032 9.73 18.448 8.25 1.181-0.39 0.567-6.26-0.758-7.24-1.932-1.43-2.679-13.58-2.272-36.93 0.633-36.21 2.809-38.71 10.967-12.57 2.823 9.04 1.228 34.1-2.635 41.38-1.875 3.54-3.398 17.1-2.213 19.7 0.629 1.38 1.143 3.76 1.143 5.29 0 3.27 5.407 13.7 7.793 15.03 1.044 0.59 2.404 0.55 3.682-0.11 6.233-3.21 8.624-8.07 12.472-25.31 1.224-5.48-0.07-42.61-2.039-58.48-0.58-4.68-0.947-19.52-0.816-33 0.13-13.48-0.123-32.25-0.565-41.73-0.674-14.49-0.548-18.15 0.799-23 0.881-3.17 2.285-12.75 3.119-21.27 0.835-8.52 2.042-19.78 2.684-25s1.156-10.62 1.141-12c-0.016-1.38-0.121-7.31-0.235-13.19-0.259-13.41-0.112-13.83 5.903-16.68 9.062-4.31 9.952-9.12 3.452-18.7l-2.3-3.39 2.5-2.96c1.9-2.27 2.44-3.94 2.26-7.02-0.19-3.13 0.28-4.53 2.07-6.2 1.9-1.77 2.21-2.85 1.77-6.17-0.46-3.41-0.18-4.3 1.88-5.93 3.96-3.11 3.19-6.24-2.32-9.43-5.81-3.37-7.18-5.01-7.22-8.65-0.02-1.55-0.46-3.62-0.99-4.6-0.739-1.38-0.397-2.28 1.5-3.93 4.39-3.82 2.22-6.78-6.438-8.78-11.849-2.74-17.047-12.02-9.295-16.6 3.823-2.25 18.413-17.58 21.703-22.78 2.87-4.55 22.83-24.85 28.53-29.02 7.31-5.36 10.5-5.9 19.66-3.36 3.19 0.88 7.69 1.93 9.99 2.33 2.73 0.47 5.59 1.99 8.19 4.34l4 3.61-3.51 2.81c-8 6.38-19 14.3-19.88 14.3-1.13 0-6.49 5.42-6.49 6.56 0 1.23 9.79 10.74 15.08 14.66 3.91 2.89 2.77 3.9-3.54 3.16-3.92-0.46-6.19-0.2-8.59 1-3.6 1.79-7.95 2.16-7.95 0.66 0-0.53-1.91-1.47-4.25-2.08-2.34-0.62-7.02-2.66-10.41-4.54s-6.77-3.42-7.5-3.43c-0.74 0-2.69-0.71-4.34-1.58-1.65-0.86-4.58-2.1-6.5-2.76l-3.5-1.18-10.025 10.16c-8.896 9.02-9.826 10.29-8.25 11.28 0.977 0.61 1.775 1.74 1.775 2.51 0 1.6 4.857 5.94 9.121 8.14 8.319 4.3 36.249 4.24 37.889-0.09 1.24-3.26 6.94-3.68 12.85-0.94 11.1 5.14 14.6 5.8 19.4 3.68 2.39-1.06 6.74-2.54 9.67-3.29 3.28-0.84 5.85-2.19 6.73-3.52 0.88-1.34 2.91-2.39 5.38-2.79l3.96-0.63 0.04-6.24c0.03-3.43 0.44-8.26 0.91-10.73 0.51-2.61 0.49-5.19-0.04-6.17-1.24-2.32-0.28-4.35 2.69-5.71 3.66-1.66 3.66-1.66 2.85 5.12-0.41 3.44-0.72 6.93-0.69 7.75 0.09 2.67-3.7 21.02-4.75 22.97-1.74 3.26-1.14 4.76 3.19 7.94 4.52 3.33 8.51 4 9.44 1.59 0.78-2.02 2-1.89 5.51 0.61 2.73 1.94 3.1 1.98 4.73 0.5 0.98-0.89 2.59-1.61 3.57-1.61 1.51 0 1.69-0.53 1.09-3.25-2.47-11.29-3.65-48.75-1.54-48.75 0.61 0 1 4.55 1 11.64 0 16.45 1.81 29.36 4.12 29.36 2.65 0 2.84-1.02 1.31-6.91-0.89-3.43-1.49-12.2-1.67-24.17-0.33-22.51-0.26-22.35-12.76-28.63-4.61-2.32-8.76-4.9-9.24-5.75-1.21-2.16-5.01-1.91-9.27 0.6-2.52 1.49-3.93 1.81-4.67 1.08-1.33-1.33-0.21-3.2 1.99-3.3 4.26-0.2 9.69-4.37 10-7.68 0.42-4.29-1.75-5.09-7.86-2.91-4.72 1.67-10.95 1.38-10.95-0.52 0-0.52-2.39-3.37-5.32-6.35-2.93-2.97-6.83-8.29-8.68-11.81-4.99-9.53-8.45-13.43-10.7-12.04-2.88 1.77-2.62 3.7 1.24 9.3 5.14 7.48 4.4 8.52-5.47 7.66-4.86-0.43-8.61-0.3-9.74 0.33-1.01 0.56-4.31 2.09-7.33 3.4-10.68 4.62-14.81 6.91-22.02 12.24-5.9 4.36-7.64 5.58-14.07 9.87-2.403 1.59-4.97 3.51-5.709 4.25-1.572 1.57-5.808 1.79-6.701 0.34-0.34-0.55 0.105-1 0.99-1 6.055 0 12.51-6.3 12.51-12.21 0-2.68 0.63-5.86 1.4-7.08 7.25-11.45 2.33-35.33-6.877-33.39-6.136 1.3-7.08-0.98-1.461-3.53 6.728-3.04 11.418-8.85 12.388-15.319 0.37-2.433 1.09-4.687 1.61-5.008 2.34-1.444 5.15-9.899 4.62-13.895-1.02-7.63-11.28-12.51-17.198-8.179-7.156 5.232-11.441-8.986-5.978-19.832 5.138-10.201 4.389-16.629-2.451-21.057-2.779-1.799-5.567-7.624-4.875-10.186 2.464-9.1244-7.262-16.57-16.981-16.246zm1.405 5.5039c6.606 0.0744 11.389 4.5497 11.408 12.129 0.011 4.569 5.014 13.853 7.969 14.791 4.646 1.475-0.791 16.983-5.981 17.059-3.195 0.047-3.498 0.307-3.498 3 0 2.447 0.368 2.899 2.162 2.652 2.926-0.403 3.44 0.777 2.697 6.193-0.488 3.564-1.045 4.604-2.461 4.604-3.182 0-4.28 3.618-1.839 6.059 1.929 1.929 1.973 2.249 0.523 3.851-0.87 0.961-1.582 2.251-1.582 2.867 0 0.617-1.688 2.367-3.75 3.889s-5.368 4.18-7.346 5.908c-2.054 1.795-6.523 4.062-10.42 5.285-12.115 3.803-14.507 2.427-24.328-13.99-4.614-7.713-4.405-17.869 0.367-17.869 1.297 0 2.616-0.416 2.93-0.924s1.939-1.224 3.613-1.592c4.953-1.087 3.471-3.915-2.246-4.285-6.72-0.434-9.804-5.527-6.111-10.088l1.83-2.261 2.76 2.171c2.627 2.067 5.701 2.12 5.701 0.1 0-1.515-5.986-6.121-7.955-6.121-4.173 0-4.336-2.548-0.607-9.453 2.12-3.928 3.562-7.994 3.562-10.049 0-6.64 13.585-14.513 17.789-10.308 0.92 0.919 2.044 0.7228 4.951-0.8697 3.48-1.9065 6.859-2.7819 9.862-2.748zm-15.854 8.6167c-5.062-0.014-11.748 2.09-11.748 4.42 0 1.792 1.057 1.752 5.986-0.22 3.732-1.493 4.216-1.487 6.608 0.08 2.494 1.634 2.528 2.886 0.086 3.115-0.649 0.061-1.968 0.18-2.93 0.264-0.962 0.083-1.75 0.793-1.75 1.578 0 0.784 0.788 1.633 1.75 1.885 8.666 2.264 13.798-6.272 6.211-10.332-1.019-0.546-2.526-0.785-4.213-0.79zm15.299 11.811c-2.472 0-7.047 2.052-7.047 3.16 0 1.323 5.313 0.918 7.25-0.553 2.284-1.733 2.216-2.607-0.203-2.607zm2.849 9.037c-1.011 0.097-1.896 0.618-1.896 1.488 0 0.839 1.125 1.952 2.5 2.475s2.5 1.486 2.5 2.141 0.788 1.987 1.75 2.961c2.297 2.323 3.678 1.855 4.062-1.379 0.441-3.71-1.356-6.655-3.687-6.045-1.045 0.273-2.201 0.008-2.57-0.59-0.508-0.822-1.647-1.148-2.659-1.051zm-11.134 4.209c-2.296-0.022-4.741 0.708-6.686 2.344-5.085 4.278-2.599 6.539 2.651 2.41 3.31-2.604 4.457-2.523 7.085 0.5 2.651 3.048 4.188 3.198 4.188 0.41 0-3.5-3.412-5.626-7.238-5.664zm-0.766 15.082c-2.462-0.092-4.995 0.254-5.834 1.106-1.551 1.574-1.528 1.789 0.338 3.203 3.46 2.621 12.781 0.245 10.91-2.782-0.559-0.904-2.951-1.435-5.414-1.527zm-17.289 11.162c-0.421-0.015-0.807 0.178-1.25 0.545-2.071 1.719-1.808 3.475 0.793 5.305 4.783 3.365 7.417 0.237 3.281-3.899-1.324-1.324-2.123-1.925-2.824-1.951zm43.272 2.944c1.15-0.116 2.57 0.521 4.021 2.066 2.84 3.023 4.392 3.104 9.5 0.5 4.98-2.539 6.03-2.51 7.94 0.223 3.93 5.611 1.57 12.862-5.94 18.23-2.436 1.741-1.071 4.858 2.35 5.367 3.63 0.541-3.207 11.18-7.186 11.18-1.689 0-10.611 6.41-10.639 7.64-0.035 1.56 2.372 2.36 7.106 2.36 6.927 0 10.869 3.04 10.869 8.38 0 1.22 0.5 2.72 1.11 3.33 0.62 0.61 0.95 1.62 0.74 2.23-0.39 1.17-1.5-0.13-4.84-5.66-2.172-3.6-7.54-6.28-12.559-6.28-3.43 0-6.451-3.79-6.451-8.09 0-1.95-1.572-3.41-2.34-2.17-0.263 0.43-0.13 2.69 0.299 5.04 0.874 4.78-0.255 6.35-2.764 3.84-1.387-1.38-1.441-2.2-0.39-5.86 4.795-16.722 7.61-31.739 6.779-36.168-0.69-3.677 0.477-5.965 2.395-6.158zm-55.846 18.507c1.178-0.054 2.277 0.477 3.066 1.809 0.897 1.512 4.181 5.278 7.299 8.367l5.67 5.613-2.619 5.17c-1.521 3-3.967 5.99-5.834 7.13-4.152 2.53-4.715 2.48-4.715-0.47 0-3.49-1.619-4.04-6.023-2.05-9.938 4.48-22.125-5.8-16.954-14.309 2.365-3.888 7.977-5.049 7.977-1.65 0 2.734 2.434 4.879 4.594 4.049 1.138-0.43 1.439-1.335 1.013-3.03-1.258-5.015 2.991-10.464 6.526-10.629zm46.508 1.18c1.768 0.038 1.243 4.466-1.385 13.879-0.845 3.02-1.743 7.41-1.996 9.75-0.542 5-1.159 5.1-7.76 1.25-2.75-1.6-6.125-2.94-7.5-2.97-3.895-0.09-5.959-1.8-3.75-3.1 0.963-0.57 2.436-2.36 3.273-3.97 0.88-1.71 3.52-3.971 6.25-5.366 2.6-1.329 6.277-4.03 8.172-6.004 2.212-2.304 3.769-3.489 4.696-3.469zm-23.643 24.289c3.36 0.01 8.798 1.73 12.041 4.12 2.31 1.7 4.008 2.21 6.037 1.8 3.279-0.65 7.838 3.59 7.893 7.34 0.017 1.19 1.095 4.34 2.396 7 4.976 10.16 7.176 31.93 3.942 38.99-2.713 5.92-4.214 6.53-9.057 3.66-4.124-2.45-5.43-4.76-3.121-5.53 0.753-0.25 1.188-4.86 1.305-13.83 0.185-14.24-0.517-17.09-5.571-22.57-1.068-1.16-2.208-3.74-2.533-5.75-0.412-2.53-1.111-3.64-2.299-3.64-0.938 0-3.597-1.8-5.91-4s-5.059-4-6.103-4c-2.561 0-3.326-1.5-1.528-2.99 0.5-0.42 1.388-0.6 2.508-0.6zm-27.393 19.72c0.689 0.08 1.861 0.67 3.395 1.87 1.375 1.08 2.838 1.97 3.25 1.98 1.12 0.03 4.75 3.87 4.75 5.02 0 1.95-6.957-1.68-10.25-5.35-2.096-2.34-2.292-3.65-1.145-3.52zm144.26 7.06c1.02 0.04 1.44 0.48 1.78 1.45 0.99 2.77 3.57 5.48 6.17 6.47 2.85 1.09 1.96 2.89-1.44 2.89-1.86 0-2.43 0.46-2.18 1.75 0.37 1.93 3.44 2.36 17.06 2.37 12.67 0.01 8.56 3.26-5.75 4.55-12.36 1.11-17.21 0.83-27.74-1.59l-9.73-2.24-5.64 2.58c-6.89 3.15-8 3.19-9.48 0.33-0.64-1.24-2.07-3.25-3.18-4.47-2.04-2.24-1.16-5.28 1.53-5.28 0.56 0 4.87-1.87 9.58-4.17 4.71-2.29 9.04-4.12 9.62-4.07 5.01 0.45 13.73 0.31 16.78-0.27 1.17-0.22 2-0.33 2.62-0.3zm-127.26 9.01c0.233 0.02 0.398 0.45 0.398 1.13 0 0.92 0.452 1.67 1.004 1.67s1.789 1.83 2.75 4.07c1.29 3 2.466 4.21 4.496 4.62 1.512 0.31 2.75 1.14 2.75 1.85s1.192 2.16 2.65 3.22c3.587 2.62 1.701 3.48-2.65 1.22-1.925-1-4.678-2.27-6.117-2.82-2.637-1-7.183-13.19-5.535-14.84 0.089-0.09 0.176-0.13 0.254-0.12zm37.916 8.32c-0.4 0.07-0.924 0.44-1.618 1.07-2.37 2.15-2.424 4.29-0.15 6.02 2.756 2.09 3.327 1.66 3.113-2.36-0.186-3.5-0.467-4.87-1.345-4.73zm100.86 6.1c0.66 0.02 1.25 0.15 1.67 0.41 0.74 0.46 0.86 1.27 0.32 2.17-0.97 1.62-5.47 0.98-6.09-0.85-0.33-0.99 2.14-1.82 4.1-1.73zm18.58 2.42c1.11-0.04 2.23 0.23 3.28 0.88 1.25 0.78 4.96 2.77 8.26 4.43 8.6 4.32 11.5 6.52 11.5 8.72 0 2.53-1.52 2.46-3.35-0.17-2.11-3-3.98-2.11-18.2 8.58-6.78 5.1-13.38 9.54-14.66 9.86s-3.31 1.5-4.52 2.62c-1.2 1.12-2.57 2.04-3.04 2.04-0.48 0-2.26 1.58-3.96 3.5-4.17 4.71-21.17-5.34-19.55-11.55 0.57-2.17 4.84-5.95 6.72-5.95 0.64 0 2.69-1.58 4.56-3.5s3.92-3.5 4.57-3.5c0.64 0 3.62-2.48 6.63-5.5 6.02-6.08 5.79-6.09 10.89 0.75 1.93 2.58 4.78 3.55 6.21 2.12 0.35-0.35-0.25-1.76-1.33-3.14-3.27-4.15 1.2-10.02 5.99-10.19zm-134.94 7.19c0.699-0.13 2.845 1.15 7.117 3.98 6.735 4.45 8.035 5.7 7.238 6.99-1.688 2.73-11.043-2.82-13.689-8.13-0.882-1.76-1.211-2.73-0.666-2.84zm147.34 11.55c0.48-0.01 0.95 0.2 1.39 0.64 0.32 0.32 0.06 0.58-0.58 0.58-0.74 0-1.19 1.94-1.21 5.25-0.05 5.3-1.89 21.93-3.97 35.75-1.32 8.76-2.8 11.05-5.44 8.41-1.28-1.28-1.55-2.55-1.04-4.82 0.38-1.7 1.11-4.89 1.61-7.09 1.24-5.41 2.68-16.49 3.25-25 0.5-7.52 3.39-13.69 5.99-13.72zm4.14 2.55c0.66-0.22 0.7 5.21 0.1 16.17-0.5 9.07-1.31 16.5-1.82 16.5-0.5 0-0.85 2.81-0.77 6.25s0.11 6.81 0.07 7.5c-0.12 1.8-3.03 1.54-3.75-0.32-0.33-0.87-0.12-3.23 0.46-5.25 2.2-7.64 3.28-15.08 3.98-27.6 0.4-7.11 1.18-13.07 1.73-13.25zm-23.41 13.67c1.01 0 0.89 4.14-0.42 15.5-0.26 2.21-0.94 3.09-2.61 3.33-1.95 0.29-2.14 0.03-1.46-2 0.43-1.28 0.82-4.1 0.87-6.26s0.64-4.11 1.31-4.33 1.22-1.72 1.22-3.32c0-1.61 0.49-2.92 1.09-2.92zm-6.76 1.26c0.22 0.02 0.43 0.09 0.63 0.21 1.26 0.78 1.39 6.19 0.17 6.95-0.48 0.3-1.18 4.13-1.56 8.51-0.7 7.98-2.19 10.27-6.02 9.2-0.51-0.14-1.86 0.19-3 0.73-1.13 0.54-3.17 1.23-4.55 1.52s-3.62 0.75-5 1.03c-2.31 0.46-12.59-2.24-17.67-4.64-1.19-0.56-3.55-0.82-5.25-0.57-1.9 0.28-3.08 0.02-3.08-0.68 0-1.81 2.76-5.09 3.59-4.27 0.41 0.42 1.46 0.16 2.33-0.57 6.72-5.63 19.92-3.26 21.23 3.81 0.74 3.95 3.84 3.03 3.93-1.17 0.12-6.06 3.98-14.67 5.75-12.82 0.61 0.64 0.52 2.67-0.24 5.59-1.32 5.07-1.09 6.91 0.89 6.91 1.76 0 2.52-2.28 2.52-7.52 0-2.4 0.45-4.64 1-4.98s1-1.66 1-2.94c0-2.29 1.82-4.45 3.33-4.3zm-160.42 7.95c0.487-0.05 1.036 0.4 1.686 1.29 0.805 1.1 2.854 3.48 4.552 5.29 3.048 3.25 3.063 3.32 1.219 5.46-2.121 2.46-2.467 2.92-5.865 7.75-1.354 1.92-3.011 4.62-3.684 6-0.672 1.38-2.063 3.74-3.09 5.25-1.026 1.51-2.254 2.75-2.728 2.75-0.981 0 0.427-5.59 1.85-7.35 3.52-4.34 5.206-8.89 3.709-10.01-1.31-0.98-1.368-2.14-0.403-8.14 0.907-5.64 1.682-8.18 2.754-8.29zm18.471 5.82c0.925 0.07 1.75 0.38 2.117 0.97 0.34 0.55 3.975 1 8.078 1 6.264 0 8.106 0.41 11.479 2.54 2.209 1.39 4.509 2.23 5.109 1.86 0.717-0.44 0.533-0.99-0.537-1.59-3.055-1.71-1.958-3.82 1.621-3.12 4.449 0.87 7.75 3.17 7.75 5.4 0 6.78 6.232 12.91 13.129 12.91 5.497 0 7.679 2.51 4.822 5.55-1.273 1.36-1.848 2.81-1.398 3.54 0.419 0.67 0.709 2.85 0.644 4.82-0.125 3.82 4.343 10.09 7.183 10.09 5.35 0 6.73 6.38 1.62 7.5-3.9 0.86-4.41 3.03-1.38 5.85l2.56 2.37-3.12 3.56c-1.86 2.12-2.71 3.82-2.09 4.2 4.04 2.5-0.17 8.95-5.228 8-2.925-0.55-3.647-0.27-5.097 1.94-2.409 3.68-8.901 2.5-10.286-1.87-0.579-1.82-0.782-1.76-2.88 0.87-2.597 3.26-4.045 2.83-4.991-1.47-0.366-1.67-1.814-4.1-3.218-5.4-1.581-1.47-2.322-2.98-1.944-3.96 0.336-0.88 0.356-2.26 0.043-3.07-0.906-2.36-4.009-0.07-4.721 3.49-0.557 2.78-0.819 2.97-2.753 1.93-1.177-0.63-3.393-0.89-4.926-0.58-3.392 0.67-4.294-0.98-2.397-4.41 1.949-3.52 1.778-3.95-1.572-3.95-1.65 0-2.994-0.34-2.988-0.75 0.02-1.44 8.151-9.25 9.633-9.25 0.977 0 1.384-0.78 1.175-2.25-0.266-1.88-0.849-2.2-3.527-1.94-1.764 0.17-4.116-0.18-5.227-0.77-1.623-0.87-2.417-0.69-4.043 0.94-4.293 4.29-7.326 1.72-3.429-2.91 3.006-3.57 2.634-6.6-0.682-5.54-3.528 1.12-1.908-2.81 1.838-4.46 3.881-1.71 4.186-3.76 0.75-5.07-3.092-1.18-3.156-2.29-0.25-4.35l2.25-1.6-2.738-2.1c-2.977-2.28-1.72-7.95 1.763-7.95 3.189 0 1.245-2.01-2.525-2.62-4.114-0.65-5.039-2.51-3.393-6.8 0.419-1.09 2.234-1.66 3.776-1.55zm172.78 7.47l1.92 4c1.05 2.2 1.8 5.12 1.67 6.49-0.64 6.46-3.75 3.34-3.67-3.67l0.08-6.82zm-158.9 92.94c8.9 0.05 18.582 1.15 23.974 3.44 6.021 2.56 3.268 3.21-3.234 0.76-7.623-2.86-31.689-3.13-34.723-0.39-2.082 1.88-4.821 2.3-5.707 0.87-1.907-3.09 8.246-4.75 19.69-4.68zm1.25 3.9c9.521 0.08 21.159 2.74 26.142 7.04l2.455 2.12-1.193 16.5c-0.656 9.08-1.312 21.68-1.457 28-0.656 28.56-3.78 41.38-10.615 43.55-2.222 0.71-2.46 4.69-0.385 6.41 1.822 1.52 3.543 0.53 3.543-2.02 0-1.07 0.623-1.94 1.387-1.94 1.031 0 1.398 1.6 1.425 6.25 0.021 3.44 0.783 8.44 1.692 11.11 1.386 4.08 1.572 7.87 1.154 23.5-0.676 25.29-0.662 26.78 0.422 41.64 3.746 51.35 3.732 63.61-0.08 66.54-4.031 3.09-8.633 2.45-13.25-1.85-4.057-3.78-3.466-10.18 2.73-29.58 3.615-11.31 3.199-29.54-0.871-38.11-0.783-1.65-2.194-5.02-3.134-7.5-0.941-2.48-2.557-6.14-3.592-8.14-1.036-2-1.883-4.12-1.883-4.71s-1.534-4.35-3.408-8.36c-8.209-17.55-9.802-36.56-4.592-54.79 4.392-15.37 3.776-27.54-2.047-40.5-0.494-1.1-1.847-4.48-3.006-7.5s-3.385-7.98-4.947-11-3.387-7.3-4.055-9.5c-0.667-2.2-2.053-6.2-3.08-8.88-3.174-8.31-0.869-14.62 5.34-14.62 0.768 0 1.823-0.37 2.346-0.83 2.295-2.01 7.246-2.89 12.959-2.83zm-10.356 89.44c1.769-0.07 2.413 2.7 0.588 8.09-5.215 15.42-4.932 31.34 0.774 43.63 8.428 18.16 8.315 17.71 5.814 23.28-1.438 3.21-1.68 8.07-1.75 35.22-0.079 30.74-0.128 31.5-2.08 31.69-3.917 0.37-6.455-1.58-6.484-4.98-0.009-0.99-1.313-4.59-2.899-8-1.585-3.42-3.178-7.79-3.539-9.71-1.233-6.58-2.871-12.5-3.724-13.45-1.372-1.53-1.007-3.24 1.478-6.9 5.438-8.01 7.56-40.4 3.32-50.67-5.018-12.17-4.15-29.08 2.116-41.23 2.389-4.64 4.826-6.91 6.386-6.97z"/>
<path fill="#ff2a2a" d="m42.687 84.195c-3.1723-3.3111-3.3054-4.3257-0.85835-6.5403 4.9208-4.4533 12.483-0.23431 10.225 5.7047-1.6757 4.4075-5.6081 4.7583-9.3663 0.83563z"/>
</svg>
